<?xml version="1.0" encoding="UTF-8" standalone="no"?>
<!DOCTYPE svg PUBLIC "-//W3C//DTD SVG 1.1//EN" "http://www.w3.org/Graphics/SVG/1.1/DTD/svg11.dtd">
<svg width="100%" height="100%" viewBox="0 0 100 100" version="1.1" xmlns="http://www.w3.org/2000/svg" xmlns:xlink="http://www.w3.org/1999/xlink" xml:space="preserve" xmlns:serif="http://www.serif.com/" style="fill-rule:evenodd;clip-rule:evenodd;stroke-linejoin:round;stroke-miterlimit:2;">
    <path d="M100,16C100,7.169 92.831,-0 84,-0L16,-0C7.169,-0 0,7.169 0,16L0,84C0,92.831 7.169,100 16,100L84,100C92.831,100 100,92.831 100,84L100,16Z" style="fill:rgb(230,38,28);"/>
    <path d="M82.731,57.22C82.22,57.72 81.555,57.945 80.915,57.945C80.25,57.945 79.61,57.72 79.099,57.22L75.597,53.792L75.597,58.572C75.597,71.538 65.472,82.222 52.56,83.5L47.472,83.5C34.535,82.247 24.409,71.538 24.409,58.572L24.409,53.792L20.853,57.22C19.857,58.195 18.247,58.195 17.247,57.22C16.251,56.246 16.251,54.669 17.247,53.69L25.121,45.983C25.352,45.758 25.632,45.557 25.941,45.434C26.581,45.184 27.272,45.184 27.912,45.434C28.217,45.56 28.501,45.758 28.731,45.983L36.606,53.69C37.602,54.665 37.602,56.242 36.606,57.22C36.12,57.72 35.455,57.945 34.79,57.945C34.15,57.945 33.485,57.72 32.999,57.22L29.497,53.792L29.497,58.572C29.497,68.782 37.346,77.218 47.447,78.443L47.447,38.374C42.434,37.223 38.677,32.841 38.677,27.586C38.677,21.48 43.765,16.5 50.003,16.5C56.242,16.5 61.33,21.48 61.33,27.586C61.33,32.841 57.572,37.222 52.56,38.374L52.56,78.443C62.635,77.19 70.485,68.757 70.485,58.572L70.485,53.792L66.983,57.22C65.987,58.195 64.376,58.195 63.351,57.22C62.355,56.246 62.355,54.669 63.351,53.69L71.225,45.983C71.456,45.758 71.736,45.557 72.07,45.434C72.685,45.184 73.401,45.184 74.012,45.434C74.318,45.56 74.627,45.758 74.857,45.983L82.731,53.69C83.756,54.669 83.756,56.245 82.731,57.22L82.731,57.22Z" style="fill:white;fill-rule:nonzero;"/>
</svg>
